<svg width="56" height="70" viewBox="0 0 56 70" fill="none" xmlns="http://www.w3.org/2000/svg">
<path d="M46 0C51.5227 0.000110994 56 4.47725 56 10V50L36.001 70H10C4.47727 70 0.000144017 65.5227 0 60V10C0 4.47718 4.47718 0 10 0H46Z" fill="url(#paint0_linear_38_1066)"/>
<path d="M36.0001 70V60.0001C36.0001 54.4772 40.4772 50.0001 46 50.0001H56L36.0001 70Z" fill="url(#paint1_linear_38_1066)"/>
<g opacity="0.3" filter="url(#filter0_i_38_1066)">
<path d="M12.014 12.3645C13.3651 12.3645 14.3962 12.7082 15.1073 13.3956C15.8303 14.0712 16.1918 15.0904 16.1918 16.4534V22H14.0407V20.7023C13.7918 21.1645 13.4244 21.52 12.9384 21.7689C12.4644 22.006 11.8836 22.1245 11.1962 22.1245C10.1651 22.1245 9.34735 21.8638 8.74291 21.3423C8.13847 20.8089 7.83625 20.1215 7.83625 19.2801C7.83625 18.4149 8.1444 17.7334 8.76069 17.2356C9.37698 16.726 10.3311 16.4712 11.6229 16.4712H13.8984C13.8984 16.0682 13.8392 15.7423 13.7207 15.4934C13.4481 14.6875 12.7784 14.2845 11.7118 14.2845C11.2022 14.2845 10.7044 14.3734 10.2185 14.5512C9.74439 14.7171 9.3355 14.9482 8.9918 15.2445L8.15625 13.5556C8.64217 13.1764 9.22291 12.886 9.89846 12.6845C10.5859 12.4712 11.291 12.3645 12.014 12.3645ZM11.7473 20.4712C12.257 20.4712 12.6955 20.3526 13.0629 20.1156C13.4421 19.8667 13.7207 19.5052 13.8984 19.0312V17.9112H11.8718C10.6748 17.9112 10.0762 18.3319 10.0762 19.1734C10.0762 19.5645 10.2244 19.8786 10.5207 20.1156C10.817 20.3526 11.2259 20.4712 11.7473 20.4712ZM23.6204 12.3645C24.4619 12.3645 25.2204 12.566 25.896 12.969C26.5834 13.3719 27.1226 13.9467 27.5137 14.6934C27.9048 15.4282 28.1004 16.2756 28.1004 17.2356C28.1004 18.2075 27.9048 19.0667 27.5137 19.8134C27.1226 20.5482 26.5834 21.1171 25.896 21.52C25.2204 21.923 24.4619 22.1245 23.6204 22.1245C22.9686 22.1245 22.3878 22 21.8782 21.7512C21.3686 21.5023 20.9478 21.1408 20.616 20.6667V22H18.4115V8.80899H20.7226V13.7334C21.0545 13.283 21.4693 12.9453 21.9671 12.7201C22.4649 12.4831 23.016 12.3645 23.6204 12.3645ZM23.2471 20.1334C23.9819 20.1334 24.5863 19.8726 25.0604 19.3512C25.5463 18.8178 25.7893 18.1127 25.7893 17.2356C25.7893 16.3586 25.5463 15.6593 25.0604 15.1379C24.5863 14.6164 23.9819 14.3556 23.2471 14.3556C22.5004 14.3556 21.8841 14.6164 21.3982 15.1379C20.9241 15.6593 20.6871 16.3586 20.6871 17.2356C20.6871 18.1127 20.9241 18.8178 21.3982 19.3512C21.8841 19.8726 22.5004 20.1334 23.2471 20.1334ZM34.5326 22.1245C33.5844 22.1245 32.7311 21.9171 31.9726 21.5023C31.2259 21.0875 30.6393 20.5067 30.2126 19.7601C29.7859 19.0134 29.5726 18.1719 29.5726 17.2356C29.5726 16.2993 29.7859 15.4638 30.2126 14.729C30.6393 13.9823 31.2259 13.4016 31.9726 12.9868C32.7311 12.5719 33.5844 12.3645 34.5326 12.3645C35.4452 12.3645 36.2452 12.566 36.9326 12.969C37.62 13.3601 38.1296 13.923 38.4615 14.6579L36.6837 15.689C36.1859 14.8001 35.463 14.3556 34.5148 14.3556C33.7563 14.3556 33.1341 14.6164 32.6482 15.1379C32.1622 15.6593 31.9193 16.3586 31.9193 17.2356C31.9193 18.1245 32.1622 18.8297 32.6482 19.3512C33.1341 19.8726 33.7563 20.1334 34.5148 20.1334C35.463 20.1334 36.1859 19.6889 36.6837 18.8001L38.4615 19.8489C38.1178 20.5719 37.6022 21.1349 36.9148 21.5378C36.2274 21.9289 35.4333 22.1245 34.5326 22.1245Z" fill="url(#paint2_linear_38_1066)"/>
</g>
<defs>
<filter id="filter0_i_38_1066" x="7.83643" y="8.80899" width="30.625" height="13.3155" filterUnits="userSpaceOnUse" color-interpolation-filters="sRGB">
<feFlood flood-opacity="0" result="BackgroundImageFix"/>
<feBlend mode="normal" in="SourceGraphic" in2="BackgroundImageFix" result="shape"/>
<feColorMatrix in="SourceAlpha" type="matrix" values="0 0 0 0 0 0 0 0 0 0 0 0 0 0 0 0 0 0 127 0" result="hardAlpha"/>
<feOffset/>
<feGaussianBlur stdDeviation="3.99998"/>
<feComposite in2="hardAlpha" operator="arithmetic" k2="-1" k3="1"/>
<feColorMatrix type="matrix" values="0 0 0 0 0.249455 0 0 0 0 0.249455 0 0 0 0 0.249455 0 0 0 0.3 0"/>
<feBlend mode="normal" in2="shape" result="effect1_innerShadow_38_1066"/>
</filter>
<linearGradient id="paint0_linear_38_1066" x1="28" y1="0" x2="28" y2="70" gradientUnits="userSpaceOnUse">
<stop stop-color="#DCDCDC"/>
<stop offset="1" stop-color="#F8F8F8"/>
</linearGradient>
<linearGradient id="paint1_linear_38_1066" x1="56" y1="70" x2="36.0001" y2="50.0001" gradientUnits="userSpaceOnUse">
<stop stop-color="#EFEFEF"/>
<stop offset="1" stop-color="#BDBDBD"/>
</linearGradient>
<linearGradient id="paint2_linear_38_1066" x1="23" y1="3.00005" x2="23" y2="28" gradientUnits="userSpaceOnUse">
<stop stop-color="#525252"/>
<stop offset="1" stop-color="#3D3D3D"/>
</linearGradient>
</defs>
</svg>
