<svg width="96" height="120" viewBox="0 0 96 120" fill="none" xmlns="http://www.w3.org/2000/svg">
<path d="M78.8574 0C88.3249 0.000149464 95.9998 7.67506 96 17.1426V85.7139L61.7139 120H17.1426C7.67506 120 0.000150247 112.325 0 102.857V17.1426C0.000150247 7.67506 7.67506 0.000150237 17.1426 0H78.8574Z" fill="url(#paint0_linear_12621_17566)"/>
<path d="M61.7143 120V102.857C61.7143 93.3894 69.3894 85.7143 78.8571 85.7143H96L61.7143 120Z" fill="url(#paint1_linear_12621_17566)"/>
<g opacity="0.3" filter="url(#filter0_i_12621_17566)">
<path d="M20.1668 20.6245C22.483 20.6245 24.2506 21.2137 25.4696 22.3921C26.709 23.5502 27.3287 25.2975 27.3287 27.634V37.1426H23.6411V34.9178C23.2144 35.7102 22.5846 36.3197 21.7515 36.7464C20.9185 37.1527 19.923 37.3559 18.7649 37.3559C16.9973 37.3559 15.5954 36.9089 14.5592 36.015C13.523 35.1007 13.0049 33.9223 13.0049 32.4797C13.0049 30.9965 13.5331 29.8283 14.5896 28.975C15.6462 28.1013 17.2817 27.6645 19.4963 27.6645H23.3973C23.3973 26.9737 23.2957 26.415 23.0925 25.9883C22.6455 24.6067 21.4976 23.9159 19.6487 23.9159C18.775 23.9159 17.9217 24.0683 17.0887 24.3731C16.276 24.6575 15.575 25.0435 14.9858 25.5311L13.5535 22.6664C14.3865 22.0162 15.382 21.5185 16.5401 21.1731C17.7185 20.8073 18.9274 20.6245 20.1668 20.6245ZM19.7096 34.5521C20.5833 34.5521 21.3452 34.3388 21.9954 33.9121C22.6455 33.4854 23.1128 32.8658 23.3973 32.0531V30.1026H19.923C17.8709 30.1026 16.8449 30.834 16.8449 32.2969C16.8449 32.9877 17.0988 33.5362 17.6068 33.9426C18.1147 34.3489 18.8157 34.5521 19.7096 34.5521ZM40.0636 20.6245C41.5061 20.6245 42.8064 20.9699 43.9645 21.6607C45.1429 22.3515 46.0674 23.3369 46.7379 24.6169C47.4083 25.8765 47.7436 27.3292 47.7436 28.975C47.7436 30.641 47.4083 32.114 46.7379 33.394C46.0674 34.6537 45.1429 35.6289 43.9645 36.3197C42.8064 37.0105 41.5061 37.3559 40.0636 37.3559C38.9461 37.3559 37.9506 37.1426 37.0769 36.7159C36.2033 36.2892 35.482 35.6696 34.9131 34.8569V37.1426H31.134V14.5292H35.096V23.0016C36.254 21.4169 37.9099 20.6245 40.0636 20.6245ZM39.4236 33.9426C40.6833 33.9426 41.7194 33.4956 42.5321 32.6016C43.3652 31.6873 43.7817 30.4785 43.7817 28.975C43.7817 27.4715 43.3652 26.2727 42.5321 25.3788C41.7194 24.4848 40.6833 24.0378 39.4236 24.0378C38.1436 24.0378 37.0871 24.4848 36.254 25.3788C35.4413 26.2727 35.035 27.4715 35.035 28.975C35.035 30.4785 35.4413 31.6873 36.254 32.6016C37.0871 33.4956 38.1436 33.9426 39.4236 33.9426ZM58.7702 37.3559C57.1448 37.3559 55.682 37.0004 54.3817 36.2892C53.1017 35.5781 52.096 34.5826 51.3645 33.3026C50.6331 32.0226 50.2674 30.58 50.2674 28.975C50.2674 27.3699 50.6331 25.9375 51.3645 24.6778C52.096 23.3978 53.1017 22.4023 54.3817 21.6911C55.682 20.98 57.1448 20.6245 58.7702 20.6245C60.3347 20.6245 61.7061 20.9699 62.8845 21.6607C64.0629 22.3311 64.9366 23.2962 65.5055 24.5559L62.4579 26.2931C61.6045 24.7896 60.3652 24.0378 58.7398 24.0378C57.4394 24.0378 56.3626 24.4848 55.5093 25.3788C54.6763 26.2727 54.2598 27.4715 54.2598 28.975C54.2598 30.4988 54.6763 31.7077 55.5093 32.6016C56.3626 33.4956 57.4394 33.9426 58.7398 33.9426C60.3855 33.9426 61.6248 33.1908 62.4579 31.6873L65.5055 33.455C64.9163 34.6943 64.0325 35.6594 62.854 36.3502C61.6756 37.0207 60.3144 37.3559 58.7702 37.3559Z" fill="url(#paint2_linear_12621_17566)"/>
</g>
<defs>
<filter id="filter0_i_12621_17566" x="13.0039" y="14.5293" width="52.502" height="22.8267" filterUnits="userSpaceOnUse" color-interpolation-filters="sRGB">
<feFlood flood-opacity="0" result="BackgroundImageFix"/>
<feBlend mode="normal" in="SourceGraphic" in2="BackgroundImageFix" result="shape"/>
<feColorMatrix in="SourceAlpha" type="matrix" values="0 0 0 0 0 0 0 0 0 0 0 0 0 0 0 0 0 0 127 0" result="hardAlpha"/>
<feOffset/>
<feGaussianBlur stdDeviation="6.85714"/>
<feComposite in2="hardAlpha" operator="arithmetic" k2="-1" k3="1"/>
<feColorMatrix type="matrix" values="0 0 0 0 0.249455 0 0 0 0 0.249455 0 0 0 0 0.249455 0 0 0 0.3 0"/>
<feBlend mode="normal" in2="shape" result="effect1_innerShadow_12621_17566"/>
</filter>
<linearGradient id="paint0_linear_12621_17566" x1="48" y1="0" x2="48" y2="120" gradientUnits="userSpaceOnUse">
<stop stop-color="#DCDCDC"/>
<stop offset="1" stop-color="#F8F8F8"/>
</linearGradient>
<linearGradient id="paint1_linear_12621_17566" x1="96" y1="120" x2="61.7143" y2="85.7143" gradientUnits="userSpaceOnUse">
<stop stop-color="#EFEFEF"/>
<stop offset="1" stop-color="#BDBDBD"/>
</linearGradient>
<linearGradient id="paint2_linear_12621_17566" x1="39" y1="5.14258" x2="39" y2="48.1426" gradientUnits="userSpaceOnUse">
<stop stop-color="#525252"/>
<stop offset="1" stop-color="#3D3D3D"/>
</linearGradient>
</defs>
</svg>
